<svg width="369" height="248" viewBox="0 0 369 248" fill="none" xmlns="http://www.w3.org/2000/svg">
<path d="M280.427 52.7234C276.827 44.4734 262.837 42.5934 238.867 47.1034C217.087 51.1934 189.727 60.1734 161.817 72.3734C133.907 84.5734 108.757 98.5735 90.9572 111.773C71.3672 126.323 63.2572 137.863 66.8672 146.103C69.1972 151.443 75.8671 154.103 86.8071 154.103C93.4255 154.001 100.023 153.332 106.527 152.103L106.597 152.183L106.747 152.053C107.307 151.953 107.857 151.873 108.427 151.753C130.207 147.653 157.567 138.673 185.427 126.473C213.287 114.273 238.497 100.283 256.297 87.0835C275.927 72.4935 284.037 60.9734 280.427 52.7234ZM182.707 120.053C160.517 129.743 138.707 137.363 119.947 142.053C136.687 130.433 159.107 118.253 183.947 107.403C203.98 98.6328 224.678 91.4702 245.847 85.9834C228.977 97.4934 206.897 109.493 182.707 120.053ZM259.297 75.8134C236.497 80.1334 207.297 89.5334 181.107 100.993C149.357 114.873 121.327 130.993 103.747 145.453C92.1872 147.333 75.6071 148.533 73.3171 143.313C70.7871 137.523 85.8571 124.313 95.1671 117.393C112.547 104.493 137.237 90.7834 164.667 78.7834C192.097 66.7834 218.927 57.9834 240.207 53.9734C247.098 52.6409 254.09 51.9049 261.107 51.7735C267.537 51.7735 272.837 52.7735 274.107 55.5235C275.957 59.9735 267.497 68.8234 259.257 75.8134H259.297Z" fill="#1E2CFB"/>
<path d="M366.087 73.4035L344.807 24.7235C336.937 6.72347 311.467 -1.90652 273.047 0.35348C235.817 2.55348 190.397 14.6535 145.167 34.4235C99.9371 54.1935 60.1671 79.3435 33.3071 105.194C5.56709 131.844 -5.38286 156.423 2.48714 174.403L23.7672 223.093C30.7672 239.193 51.9771 247.824 83.9071 247.824C87.6404 247.824 91.5137 247.703 95.5271 247.463C132.757 245.263 178.177 233.164 223.407 213.384C268.637 193.604 308.407 168.474 335.267 142.634C363.007 115.974 373.947 91.3835 366.087 73.4035ZM8.89706 171.603C2.38706 156.723 13.0571 134.353 38.1571 110.223C64.4771 84.9435 103.477 60.3035 147.967 40.8535C192.457 21.4035 237.027 9.49348 273.467 7.35348C277.297 7.11348 280.987 7.01351 284.537 7.01351C313.227 7.01351 332.597 14.2835 338.397 27.5335C344.897 42.4135 334.237 64.7835 309.127 88.9135C282.817 114.203 243.817 138.854 199.327 158.303C154.837 177.753 110.267 189.643 73.8271 191.803C39.0671 193.854 15.4071 186.493 8.89706 171.603ZM330.417 137.603C304.097 162.883 265.097 187.523 220.607 206.973C176.117 226.423 131.547 238.343 95.1071 240.483C60.3471 242.483 36.6871 235.173 30.1871 220.283L16.7971 189.663C27.5071 195.893 43.0372 199.144 62.6272 199.144C66.3572 199.144 70.2271 199.033 74.2371 198.793C111.477 196.603 156.897 184.493 202.127 164.723C247.357 144.953 287.127 119.823 313.977 93.9735C332.117 76.5335 343.077 59.9735 346.287 45.6135L359.707 76.2135C366.187 91.0935 355.517 113.493 330.417 137.593V137.603Z" fill="#1E2CFB"/>
<path d="M338.397 27.4935C332.597 14.2435 313.227 6.97345 284.537 6.97345C280.987 6.97345 277.297 7.07348 273.467 7.31348C237.027 9.45348 192.467 21.3135 147.967 40.8135C103.467 60.3135 64.4771 84.9035 38.1571 110.183C13.0571 134.313 2.38709 156.683 8.89709 171.563C15.4071 186.443 39.0672 193.813 73.8271 191.763C110.267 189.603 154.827 177.763 199.327 158.263C243.827 138.763 282.817 114.163 309.127 88.8735C334.237 64.7835 344.897 42.4135 338.397 27.4935ZM256.337 87.0235C238.537 100.223 213.337 114.213 185.467 126.413C157.597 138.613 130.207 147.593 108.467 151.693C107.897 151.813 107.347 151.893 106.787 151.993L106.637 152.123L106.567 152.043C100.063 153.272 93.4655 153.941 86.8472 154.043C75.9172 154.043 69.2371 151.373 66.9071 146.043C63.2971 137.803 71.4072 126.263 90.9972 111.713C108.797 98.5134 133.997 84.5235 161.857 72.3135C189.717 60.1035 217.127 51.1335 238.907 47.0435C262.907 42.5335 276.907 44.4135 280.467 52.6635C284.027 60.9135 275.927 72.4935 256.337 87.0635V87.0235Z" fill="#F2CFFF"/>
<path d="M259.257 75.8135C236.457 80.1335 207.257 89.5335 181.067 100.993C149.317 114.873 121.287 130.993 103.707 145.453C92.1472 147.333 75.5671 148.533 73.2771 143.313C70.7471 137.523 85.8172 124.313 95.1272 117.393C112.507 104.493 137.197 90.7834 164.627 78.7834C192.057 66.7834 218.887 57.9834 240.167 53.9734C247.058 52.641 254.05 51.905 261.067 51.7735C267.497 51.7735 272.797 52.7735 274.067 55.5235C275.957 59.9735 267.497 68.8235 259.257 75.8135Z" fill="#1E2CFB"/>
<path d="M330.417 137.593C304.097 162.883 265.097 187.523 220.607 206.973C176.117 226.423 131.547 238.333 95.1072 240.483C60.3472 242.483 36.6871 235.173 30.1871 220.283L16.7971 189.663C27.5071 195.893 43.0372 199.143 62.6272 199.143C66.3572 199.143 70.2272 199.033 74.2372 198.793C111.477 196.593 156.897 184.493 202.127 164.713C247.357 144.933 287.127 119.813 313.977 93.9634C332.117 76.5334 343.077 59.9635 346.287 45.6035L359.707 76.2134C366.187 91.0934 355.517 113.493 330.417 137.593Z" fill="#1E2CFB"/>
</svg>
