<svg width="372" height="360" viewBox="0 0 372 360" fill="none" xmlns="http://www.w3.org/2000/svg">
<path d="M336.6 294.81C327.945 298.333 318.685 300.133 309.34 300.11C293.12 300.086 277.373 294.637 264.607 284.63C251.841 274.624 242.788 260.635 238.89 244.89L336.6 294.81Z" fill="#1E2CFB"/>
<path d="M344.9 290.95L344.62 291.09L237.32 236.27C235.707 223.008 237.792 209.558 243.346 197.407C248.9 185.256 257.706 174.878 268.79 167.42L271.69 165.42L238.69 116.56L60.85 0.100098L58.9201 1.40002C40.6141 13.7506 25.712 30.5111 15.5877 50.1362C5.46341 69.7614 0.442752 91.6195 0.988699 113.695C1.53465 135.771 7.62961 157.355 18.7116 176.455C29.7936 195.556 45.5059 211.56 64.4001 222.99L226.24 329.48C245.869 345.519 269.717 355.542 294.911 358.34C320.105 361.138 345.57 356.592 368.24 345.25L371.37 343.68L344.9 290.95ZM336.6 294.85C327.945 298.373 318.685 300.173 309.34 300.15C293.12 300.126 277.373 294.677 264.607 284.67C251.841 274.664 242.788 260.675 238.89 244.93L336.6 294.85ZM68.1901 217.13L68.0801 217.06C50.0401 206.1 35.052 190.772 24.5001 172.49C8.99769 145.542 4.13963 113.768 10.8813 83.4187C17.6229 53.0693 35.4764 26.3407 60.9301 8.49011L232.43 120.81C218.225 131.038 206.205 144 197.077 158.936C187.949 173.872 181.896 190.481 179.273 207.787C176.65 225.094 177.51 242.751 181.802 259.72C186.095 276.69 193.733 292.632 204.27 306.61L68.1901 217.13ZM309.34 352.13C282.968 352.129 257.276 343.757 235.965 328.221C214.655 312.685 198.826 290.786 190.757 265.678C182.689 240.57 182.798 213.549 191.069 188.507C199.339 163.465 215.345 141.694 236.78 126.33L261.99 163.64C248.534 173.599 238.562 187.549 233.494 203.504C228.426 219.459 228.52 236.606 233.762 252.504C239.005 268.403 249.128 282.243 262.692 292.054C276.256 301.865 292.57 307.148 309.31 307.15C320.476 307.186 331.522 304.84 341.71 300.27L361.88 340.53C345.437 348.227 327.496 352.195 309.34 352.15V352.13Z" fill="#1E2CFB"/>
<path d="M361.91 340.53C345.458 348.232 327.506 352.2 309.34 352.15C282.962 352.155 257.264 343.786 235.947 328.249C214.631 312.711 198.798 290.808 190.728 265.695C182.659 240.581 182.77 213.555 191.047 188.509C199.323 163.463 215.336 141.691 236.78 126.33L261.99 163.64C248.534 173.599 238.562 187.549 233.494 203.504C228.426 219.459 228.52 236.606 233.762 252.504C239.004 268.403 249.128 282.243 262.692 292.054C276.256 301.865 292.569 307.148 309.31 307.15C320.476 307.186 331.522 304.84 341.71 300.27L361.91 340.53Z" fill="#F2CFFF"/>
<path d="M177.78 227.6C177.747 256.136 187.046 283.9 204.26 306.66L68.18 217.13L68.0701 217.06C50.03 206.1 35.042 190.772 24.49 172.49C8.98762 145.542 4.12956 113.768 10.8712 83.4186C17.6128 53.0692 35.4663 26.3406 60.92 8.48999L232.42 120.81C215.492 132.998 201.708 149.039 192.207 167.608C182.706 186.177 177.761 206.741 177.78 227.6Z" fill="#1E2CFB"/>
</svg>
