<svg width="327" height="316" viewBox="0 0 327 316" fill="none" xmlns="http://www.w3.org/2000/svg">
<path d="M312.01 190.54C295.27 157.2 266.21 120.26 230.16 86.54C194.11 52.82 155.33 26.25 120.96 11.76C85.5101 -3.17999 58.5901 -3.51999 45.1801 10.76L8.89006 49.55C-4.52994 63.88 -2.40994 90.71 14.8901 125.1C31.6201 158.43 60.6901 195.37 96.7401 229.1C132.79 262.83 171.56 289.39 205.94 303.88C224.06 311.52 239.94 315.34 252.94 315.34C265.37 315.34 275.16 311.84 281.71 304.83L318.01 266.04C331.39 251.75 329.27 224.92 312.01 190.54ZM276.57 300.09C265.47 311.95 240.71 311 208.63 297.47C175 283.29 136.95 257.21 101.49 224.03C66.0301 190.85 37.4901 154.61 21.1101 122.03C5.49009 90.91 2.90007 66.26 14.0001 54.4L36.8301 30.01C35.0601 44.65 39.8301 63.9 51.1501 86.38C67.8901 119.72 96.9601 156.65 133.01 190.38C169.06 224.11 207.83 250.67 242.21 265.16C260.32 272.8 276.21 276.62 289.21 276.62C292.634 276.636 296.053 276.331 299.42 275.71L276.57 300.09ZM312.87 261.3C301.77 273.16 277.01 272.21 244.93 258.68C211.29 244.5 173.25 218.42 137.79 185.24C102.33 152.06 73.7901 115.83 57.4101 83.24C41.7901 52.12 39.2001 27.48 50.2901 15.62C55.4501 10.1 63.5601 7.35999 73.9901 7.35999C85.9901 7.35999 101.07 11 118.24 18.23C151.87 32.41 189.92 58.49 225.38 91.67C260.84 124.85 289.38 161.09 305.76 193.67C321.38 224.81 323.97 249.44 312.87 261.3Z" fill="#1E2CFB"/>
<path d="M312.87 261.3C301.77 273.16 277.01 272.21 244.93 258.68C211.29 244.5 173.25 218.42 137.79 185.24C102.33 152.06 73.7901 115.83 57.4101 83.24C41.7901 52.12 39.2001 27.48 50.2901 15.62C55.4501 10.1 63.5601 7.35999 73.9901 7.35999C85.9901 7.35999 101.07 11 118.24 18.23C151.87 32.41 189.92 58.49 225.38 91.67C260.84 124.85 289.38 161.09 305.76 193.67C321.38 224.81 323.97 249.44 312.87 261.3Z" fill="#F2FF43"/>
<path d="M299.41 275.68L276.57 300.09C265.47 311.95 240.71 311 208.63 297.47C175 283.29 136.95 257.21 101.49 224.03C66.0301 190.85 37.4901 154.61 21.1101 122.03C5.49009 90.91 2.90007 66.26 14.0001 54.4L36.8301 30.01C35.0601 44.65 39.8301 63.9 51.1501 86.38C67.8901 119.72 96.9601 156.65 133.01 190.38C169.06 224.11 207.83 250.67 242.21 265.16C260.32 272.8 276.21 276.62 289.21 276.62C292.632 276.626 296.047 276.311 299.41 275.68Z" fill="#1E2CFB"/>
</svg>
