<svg width="440" height="475" viewBox="0 0 440 475" fill="none" xmlns="http://www.w3.org/2000/svg">
<path d="M172.18 72.36L171.18 72.8L0.719971 375.17L99.72 474.81L271.58 404.3L439.58 100.42L343.14 2.41998L341.78 0.109985L172.18 72.36ZM263.02 400.24L101.34 466.57L11.3401 375.86L173.46 309.24L263.02 400.24ZM13.6799 367.35L175.97 78.35L331.78 11.98L171.92 302.31L13.6799 367.35ZM430.78 101.46L268.49 395.81L178.72 304.56L340.97 10.2L430.78 101.46Z" fill="#1E2CFB"/>
<path d="M331.75 11.98L171.92 302.31L13.6799 367.34L175.96 78.36L331.75 11.98Z" fill="#1E2CFB"/>
<path d="M173.48 309.24L263.02 400.24L101.34 466.57L11.3601 375.86L173.48 309.24Z" fill="#F2FF43"/>
<path d="M340.97 10.22L430.74 101.46L268.49 395.83L178.72 304.58L340.97 10.22Z" fill="#F2FF43"/>
</svg>
